<svg width="98" height="139" viewBox="0 0 98 139" fill="none" xmlns="http://www.w3.org/2000/svg">
<g opacity="0.8">
<path d="M0.52 138.46V133.72C1.02667 133.653 1.42 133.52 1.7 133.32C1.99333 133.12 2.26 132.713 2.5 132.1C2.74 131.487 2.92667 130.613 3.06 129.48L3.84 122.66H13.32V133.5H14.52V138.46H11.68V136H3.36V138.46H0.52ZM5.88 129.68C5.69333 131.4 5.15333 132.673 4.26 133.5H10.46V125.16H6.4L5.88 129.68ZM18.5633 136H16.1233V126.34H18.6633V132.18L22.6433 126.34H25.2033V136H22.6633V129.94L18.5633 136ZM30.2648 136H27.7248V126.34H30.2648V129.92H34.2648V126.34H36.8048V136H34.2648V132.14H30.2648V136ZM47.6664 136H45.1264V135C44.4331 135.827 43.4131 136.24 42.0664 136.24C41.1997 136.24 40.4197 135.96 39.7264 135.4C39.0464 134.827 38.7064 134.04 38.7064 133.04C38.7064 132 39.0397 131.22 39.7064 130.7C40.3864 130.18 41.1731 129.92 42.0664 129.92C43.4397 129.92 44.4597 130.313 45.1264 131.1V129.8C45.1264 129.307 44.9331 128.913 44.5464 128.62C44.1597 128.327 43.6464 128.18 43.0064 128.18C41.9531 128.18 41.0131 128.56 40.1864 129.32L39.2264 127.62C40.3731 126.607 41.7797 126.1 43.4464 126.1C44.6864 126.1 45.6997 126.387 46.4864 126.96C47.2731 127.533 47.6664 128.467 47.6664 129.76V136ZM43.0864 134.52C44.0331 134.52 44.7131 134.24 45.1264 133.68V132.48C44.7131 131.92 44.0331 131.64 43.0864 131.64C42.5664 131.64 42.1331 131.773 41.7864 132.04C41.4397 132.293 41.2664 132.647 41.2664 133.1C41.2664 133.54 41.4397 133.887 41.7864 134.14C42.1331 134.393 42.5664 134.52 43.0864 134.52ZM61.6058 136H59.0658V129.72L56.4858 136H55.3258L52.7258 129.72V136H50.1858V126.34H53.5258L55.9058 132.1L58.2458 126.34H61.6058V136ZM66.5711 136H64.1311V126.34H66.6711V132.18L70.6511 126.34H73.2111V136H70.6711V129.94L66.5711 136ZM85.1727 136H81.9927L79.4327 132.28L78.2727 133.52V136H75.7327V126.34H78.2727V130.64L81.9327 126.34H85.0527L81.2327 130.72L85.1727 136ZM94.7758 136H92.2358V135C91.5424 135.827 90.5224 136.24 89.1758 136.24C88.3091 136.24 87.5291 135.96 86.8358 135.4C86.1558 134.827 85.8158 134.04 85.8158 133.04C85.8158 132 86.1491 131.22 86.8158 130.7C87.4958 130.18 88.2824 129.92 89.1758 129.92C90.5491 129.92 91.5691 130.313 92.2358 131.1V129.8C92.2358 129.307 92.0424 128.913 91.6558 128.62C91.2691 128.327 90.7558 128.18 90.1158 128.18C89.0624 128.18 88.1224 128.56 87.2958 129.32L86.3358 127.62C87.4824 126.607 88.8891 126.1 90.5558 126.1C91.7958 126.1 92.8091 126.387 93.5958 126.96C94.3824 127.533 94.7758 128.467 94.7758 129.76V136ZM90.1958 134.52C91.1424 134.52 91.8224 134.24 92.2358 133.68V132.48C91.8224 131.92 91.1424 131.64 90.1958 131.64C89.6758 131.64 89.2424 131.773 88.8958 132.04C88.5491 132.293 88.3758 132.647 88.3758 133.1C88.3758 133.54 88.5491 133.887 88.8958 134.14C89.2424 134.393 89.6758 134.52 90.1958 134.52Z" fill="black"/>
<path d="M5 11.5H2.5V14V99V101.5H5H91H93.5V99V14V11.5H91H5Z" stroke="black" stroke-width="5"/>
<rect x="44" width="7" height="99" fill="black"/>
<rect x="31" y="32" width="7" height="67" fill="black"/>
<rect x="18" y="71" width="7" height="28" fill="black"/>
<rect x="70" y="88" width="7" height="11" fill="black"/>
<rect x="57" y="55" width="7" height="44" fill="black"/>
<rect x="51" y="9" width="5" height="12" fill="white"/>
</g>
</svg>
