<svg width="43" height="43" viewBox="0 0 43 43" fill="none" xmlns="http://www.w3.org/2000/svg">
<path d="M6.29883 43H36.7012C40.1744 43 43 40.1744 43 36.7012V6.29883C43 2.82561 40.1744 0 36.7012 0H6.29883C2.82561 0 0 2.82561 0 6.29883V36.7012C0 40.1744 2.82561 43 6.29883 43ZM2.51953 6.29883C2.51953 4.21497 4.21497 2.51953 6.29883 2.51953H36.7012C38.785 2.51953 40.4805 4.21497 40.4805 6.29883V36.7012C40.4805 38.785 38.785 40.4805 36.7012 40.4805H6.29883C4.21497 40.4805 2.51953 38.785 2.51953 36.7012V6.29883Z" fill="black" fill-opacity="0.8"/>
<path d="M21.5 32.8379C27.7516 32.8379 32.8379 27.7516 32.8379 21.5C32.8379 15.2484 27.7516 10.1621 21.5 10.1621C15.2484 10.1621 10.1621 15.2484 10.1621 21.5C10.1621 27.7516 15.2484 32.8379 21.5 32.8379ZM21.5 12.6816C26.3626 12.6816 30.3184 16.6374 30.3184 21.5C30.3184 26.3626 26.3626 30.3184 21.5 30.3184C16.6374 30.3184 12.6816 26.3626 12.6816 21.5C12.6816 16.6374 16.6374 12.6816 21.5 12.6816Z" fill="black" fill-opacity="0.8"/>
<path d="M34.0977 12.6816C36.1815 12.6816 37.877 10.9862 37.877 8.90234C37.877 6.81848 36.1815 5.12305 34.0977 5.12305C32.0138 5.12305 30.3184 6.81848 30.3184 8.90234C30.3184 10.9862 32.0138 12.6816 34.0977 12.6816ZM34.0977 7.64258C34.7922 7.64258 35.3574 8.20783 35.3574 8.90234C35.3574 9.59686 34.7922 10.1621 34.0977 10.1621C33.4031 10.1621 32.8379 9.59686 32.8379 8.90234C32.8379 8.20783 33.4031 7.64258 34.0977 7.64258Z" fill="black" fill-opacity="0.8"/>
</svg>
