<svg width="43" height="43" viewBox="0 0 43 43" fill="none" xmlns="http://www.w3.org/2000/svg">
<g clip-path="url(#clip0)">
<path d="M38.275 25.7581L38.2517 25.7364C37.8846 25.3969 36.76 24.3003 36.3807 23.821C35.9355 23.2231 36.0382 22.8313 36.3719 22.2442C36.7934 21.5023 37.6382 20.3644 38.5322 19.1593C41.3955 15.301 43.2442 12.6299 42.8636 10.7326L42.6586 9.71922L32.0841 9.72382C32.047 9.82375 31.4952 12.2526 29.1666 16.3883C27.478 19.3871 26.3705 20.3292 25.9804 20.4955L25.9201 20.4771C25.7931 20.32 25.5713 19.896 25.4801 18.803C25.385 17.6581 25.4693 16.272 25.551 14.9315C25.6464 13.3596 25.7288 12.0021 25.5316 11.0308L25.2105 9.44836C24.8223 9.38624 23.4015 8.83697 19.4427 8.79523C16.0155 8.76005 15.0086 9.25607 14.5142 9.69325L12.8788 11.1392L14.946 11.8361C15.7327 12.1014 15.9938 12.4074 16.208 13.9244C16.3478 14.9131 16.4209 16.5747 16.27 18.0582C16.0532 20.1852 15.5332 20.581 15.5063 20.602C15.4167 20.5714 14.6573 20.2385 13.3388 17.4455C12.4241 15.5084 11.6223 13.217 11.0364 11.5439C10.3659 9.62784 10.4866 10.0358 10.1464 9.13051L-0.0839844 9.13018L0.57805 10.846C3.33806 18.0062 5.87039 23.5978 9.25929 27.614C13.0035 32.0512 17.6568 34.3745 23.9248 34.3745H25.1845V33.1122C25.1845 31.9322 25.282 31.0825 25.4909 30.4382C25.6186 30.0457 25.7882 29.7213 25.9663 29.3811C26.2307 28.8801 26.4892 28.6655 26.6303 28.6336C26.7583 28.6044 26.9833 28.6984 27.2326 28.8848C27.9485 29.4196 28.5167 30.1223 29.1184 30.8665C29.9864 31.9404 30.884 33.0504 32.3081 33.7772C33.0863 34.1743 34.5127 34.3748 35.2978 34.3748C35.5054 34.3748 42.9069 34.3745 42.9161 34.3745L42.862 33.0603C42.7813 31.0953 41.2377 28.6382 38.275 25.7581ZM35.3467 31.85H35.3263C34.785 31.8589 33.7519 31.6811 33.4514 31.5279C32.5046 31.0447 31.8429 30.2259 31.0762 29.2779C30.4034 28.4453 29.7076 27.5844 28.7388 26.8609C27.9554 26.2755 27.2438 26.1042 26.6789 26.1042C26.4532 26.1042 26.2504 26.1315 26.0765 26.171C25.4207 26.3189 24.4828 26.7916 23.7371 28.2047C23.5268 28.6067 23.2883 29.0619 23.0951 29.6575C22.8927 30.2808 22.7667 30.9734 22.7067 31.8158C17.9832 31.5469 14.2974 29.6746 11.1834 25.9842C8.28822 22.5529 6.01047 17.7535 3.59821 11.6537C3.77274 11.6537 8.14617 11.6543 8.40436 11.6543C8.48342 11.8768 8.56872 12.1207 8.65926 12.3791C9.29079 14.184 10.1559 16.6556 11.1752 18.7632C12.6348 21.7814 13.9677 23.1275 15.4968 23.1275C16.2602 23.1275 16.9449 22.8034 17.4767 22.1897C18.2348 21.315 18.6751 19.8713 18.8227 17.7758C18.9392 16.1234 18.8309 14.4776 18.703 13.5707C18.5973 12.8245 18.4467 12.0412 18.0793 11.3394C19.6452 11.2687 21.7418 11.3805 23.0702 11.5715C23.1909 12.2302 23.1122 13.525 23.036 14.7777C22.852 17.8037 22.662 20.9264 24.2607 22.3875C24.5419 22.6446 24.8401 22.7823 24.8486 22.7879L25.6622 23.0381C25.9762 22.9411 27.7946 23.8654 31.238 17.8445C32.3413 15.9153 33.3684 13.6923 33.9216 12.2404C35.2043 12.2378 39.5744 12.2427 40.0879 12.2434C39.3605 13.8471 37.6369 16.1346 36.5103 17.6529C35.5281 18.9762 34.68 20.1191 34.1824 20.9948C33.2579 22.6216 33.4134 24.0715 34.3762 25.3505L34.3913 25.3702C34.9287 26.0556 36.2557 27.3244 36.531 27.5801C38.525 29.5198 39.4859 30.9132 39.9432 31.8497H35.3467V31.85Z" fill="black" fill-opacity="0.8"/>
</g>
<defs>
<clipPath id="clip0">
<rect width="43" height="43" fill="white"/>
</clipPath>
</defs>
</svg>
